<svg width="1200" height="420" viewBox="0 0 1200 420" fill="none" xmlns="http://www.w3.org/2000/svg">
  <rect width="1200" height="420" rx="28" fill="#061226"/>
  <rect x="28" y="28" width="1144" height="364" rx="24" fill="url(#surface)"/>

  <circle cx="1040" cy="92" r="74" fill="#2563EB" fill-opacity="0.08"/>
  <circle cx="1114" cy="304" r="102" fill="#38BDF8" fill-opacity="0.08"/>
  <circle cx="676" cy="54" r="30" fill="#93C5FD" fill-opacity="0.08"/>

  <rect x="72" y="74" width="206" height="38" rx="19" fill="#0C1730" stroke="#2D5BDF" stroke-opacity="0.45"/>
  <text x="175" y="99" fill="#BFDBFE" font-family="Arial, Helvetica, sans-serif" font-size="18" font-weight="700" text-anchor="middle">Master's thesis case study</text>

  <text x="72" y="174" fill="white" font-family="Arial, Helvetica, sans-serif" font-size="60" font-weight="700">Object Detection</text>
  <text x="72" y="236" fill="white" font-family="Arial, Helvetica, sans-serif" font-size="60" font-weight="700">Unlearning</text>

  <text x="72" y="286" fill="#D6E3F1" font-family="Arial, Helvetica, sans-serif" font-size="22">Public companion repository for my thesis work on</text>
  <text x="72" y="318" fill="#D6E3F1" font-family="Arial, Helvetica, sans-serif" font-size="22">privacy-aware and correction-oriented machine unlearning.</text>

  <rect x="72" y="342" width="154" height="34" rx="17" fill="#1D4ED8"/>
  <text x="149" y="364" fill="white" font-family="Arial, Helvetica, sans-serif" font-size="17" font-weight="700" text-anchor="middle">YOLOS / DETR</text>
  <rect x="238" y="342" width="144" height="34" rx="17" fill="#0F766E"/>
  <text x="310" y="364" fill="white" font-family="Arial, Helvetica, sans-serif" font-size="17" font-weight="700" text-anchor="middle">VOC / KITTI</text>
  <rect x="394" y="342" width="162" height="34" rx="17" fill="#0369A1"/>
  <text x="475" y="364" fill="white" font-family="Arial, Helvetica, sans-serif" font-size="17" font-weight="700" text-anchor="middle">MIA + mAP / IoU</text>

  <line x1="666" y1="88" x2="666" y2="332" stroke="#21406B" stroke-width="2"/>

  <text x="726" y="100" fill="#93C5FD" font-family="Arial, Helvetica, sans-serif" font-size="15" font-weight="700">Research framing</text>

  <rect x="726" y="122" width="340" height="62" rx="18" fill="#0D1B35" stroke="#2B5BDE" stroke-opacity="0.5"/>
  <text x="752" y="148" fill="#7DD3FC" font-family="Arial, Helvetica, sans-serif" font-size="13" font-weight="700">01</text>
  <text x="752" y="169" fill="white" font-family="Arial, Helvetica, sans-serif" font-size="24" font-weight="700">Move beyond classification-only MU</text>

  <path d="M896 184V206" stroke="#4D8CFF" stroke-width="3" stroke-linecap="round"/>
  <circle cx="896" cy="215" r="9" fill="#1D4ED8"/>

  <rect x="726" y="228" width="340" height="62" rx="18" fill="#0D1B35" stroke="#1E88C8" stroke-opacity="0.5"/>
  <text x="752" y="254" fill="#7DD3FC" font-family="Arial, Helvetica, sans-serif" font-size="13" font-weight="700">02</text>
  <text x="752" y="275" fill="white" font-family="Arial, Helvetica, sans-serif" font-size="24" font-weight="700">Measure forget / retain behavior</text>

  <path d="M896 290V312" stroke="#67C7E9" stroke-width="3" stroke-linecap="round"/>
  <circle cx="896" cy="321" r="9" fill="#0EA5E9"/>

  <rect x="726" y="334" width="160" height="32" rx="16" fill="#1D4ED8"/>
  <text x="806" y="355" fill="white" font-family="Arial, Helvetica, sans-serif" font-size="15" font-weight="700" text-anchor="middle">User Privacy</text>
  <rect x="904" y="334" width="162" height="32" rx="16" fill="#0F766E"/>
  <text x="985" y="355" fill="white" font-family="Arial, Helvetica, sans-serif" font-size="15" font-weight="700" text-anchor="middle">Resolving Confusion</text>

  <defs>
    <linearGradient id="surface" x1="46" y1="40" x2="1124" y2="380" gradientUnits="userSpaceOnUse">
      <stop stop-color="#0A1630"/>
      <stop offset="1" stop-color="#0B2239"/>
    </linearGradient>
  </defs>
</svg>
