<svg width="1200" height="420" viewBox="0 0 1200 420" fill="none" xmlns="http://www.w3.org/2000/svg">
  <rect width="1200" height="420" rx="28" fill="#061226"/>
  <rect x="28" y="28" width="1144" height="364" rx="26" fill="url(#surface)"/>
  <rect x="74" y="78" width="194" height="38" rx="19" fill="#0B1730" stroke="#1D4ED8" stroke-opacity="0.45"/>
  <text x="171" y="102" fill="#BFDBFE" font-family="Inter, Arial, Helvetica, sans-serif" font-size="18" font-weight="700" text-anchor="middle">MSc thesis case study</text>

  <text x="74" y="176" fill="white" font-family="Inter, Arial, Helvetica, sans-serif" font-size="58" font-weight="700">Object Detection</text>
  <text x="74" y="236" fill="white" font-family="Inter, Arial, Helvetica, sans-serif" font-size="58" font-weight="700">Unlearning</text>

  <text x="74" y="286" fill="#CBD5E1" font-family="Inter, Arial, Helvetica, sans-serif" font-size="22">Public companion repository for my thesis work on privacy-aware</text>
  <text x="74" y="318" fill="#CBD5E1" font-family="Inter, Arial, Helvetica, sans-serif" font-size="22">and correction-oriented machine unlearning in computer vision.</text>

  <rect x="74" y="342" width="152" height="34" rx="17" fill="#1D4ED8"/>
  <text x="150" y="364" fill="white" font-family="Inter, Arial, Helvetica, sans-serif" font-size="17" font-weight="700" text-anchor="middle">YOLOS / DETR</text>
  <rect x="238" y="342" width="146" height="34" rx="17" fill="#0F766E"/>
  <text x="311" y="364" fill="white" font-family="Inter, Arial, Helvetica, sans-serif" font-size="17" font-weight="700" text-anchor="middle">VOC / KITTI</text>
  <rect x="396" y="342" width="166" height="34" rx="17" fill="#0369A1"/>
  <text x="479" y="364" fill="white" font-family="Inter, Arial, Helvetica, sans-serif" font-size="17" font-weight="700" text-anchor="middle">MIA + mAP / IoU</text>

  <rect x="730" y="70" width="396" height="280" rx="26" fill="#0B1730" stroke="#1E3A8A" stroke-opacity="0.35"/>
  <text x="764" y="108" fill="#93C5FD" font-family="Inter, Arial, Helvetica, sans-serif" font-size="16" font-weight="700">Research flow</text>

  <rect x="764" y="128" width="328" height="52" rx="16" fill="#102040" stroke="#2563EB" stroke-opacity="0.55"/>
  <text x="788" y="149" fill="#7DD3FC" font-family="Inter, Arial, Helvetica, sans-serif" font-size="13" font-weight="700">PROBLEM</text>
  <text x="788" y="167" fill="white" font-family="Inter, Arial, Helvetica, sans-serif" font-size="22" font-weight="700">Move MU beyond classification</text>

  <circle cx="928" cy="196" r="11" fill="#1D4ED8"/>
  <path d="M928 208V223" stroke="#60A5FA" stroke-width="3" stroke-linecap="round"/>

  <rect x="764" y="232" width="328" height="52" rx="16" fill="#102040" stroke="#0EA5E9" stroke-opacity="0.55"/>
  <text x="788" y="253" fill="#7DD3FC" font-family="Inter, Arial, Helvetica, sans-serif" font-size="13" font-weight="700">SETUP</text>
  <text x="788" y="271" fill="white" font-family="Inter, Arial, Helvetica, sans-serif" font-size="22" font-weight="700">Forget / retain evaluation workflow</text>

  <circle cx="928" cy="300" r="11" fill="#0EA5E9"/>
  <path d="M928 312V327" stroke="#7DD3FC" stroke-width="3" stroke-linecap="round"/>

  <rect x="764" y="336" width="158" height="30" rx="15" fill="#1D4ED8"/>
  <text x="843" y="356" fill="white" font-family="Inter, Arial, Helvetica, sans-serif" font-size="15" font-weight="700" text-anchor="middle">User Privacy</text>
  <rect x="934" y="336" width="158" height="30" rx="15" fill="#0F766E"/>
  <text x="1013" y="356" fill="white" font-family="Inter, Arial, Helvetica, sans-serif" font-size="15" font-weight="700" text-anchor="middle">Resolving Confusion</text>

  <circle cx="1082" cy="70" r="72" fill="#1D4ED8" fill-opacity="0.10"/>
  <circle cx="1118" cy="312" r="92" fill="#38BDF8" fill-opacity="0.08"/>
  <circle cx="700" cy="54" r="34" fill="#93C5FD" fill-opacity="0.07"/>

  <defs>
    <linearGradient id="surface" x1="44" y1="40" x2="1128" y2="380" gradientUnits="userSpaceOnUse">
      <stop stop-color="#0B1730"/>
      <stop offset="1" stop-color="#0A2138"/>
    </linearGradient>
  </defs>
</svg>
